<mxfile host="app.diagrams.net" modified="2022-01-28T10:23:58.445Z" agent="5.0 (Windows NT 10.0; Win64; x64) AppleWebKit/537.36 (KHTML, like Gecko) Chrome/97.0.4692.99 Safari/537.36" etag="UsBnupmKWLYvdkdRhTOD" version="16.4.7" type="github">
  <diagram id="6DwWyAH0f5MGy_LQ82so" name="Page-1">
    <mxGraphModel dx="1662" dy="794" grid="1" gridSize="10" guides="1" tooltips="1" connect="1" arrows="1" fold="1" page="1" pageScale="1" pageWidth="827" pageHeight="1169" math="0" shadow="0">
      <root>
        <mxCell id="0" />
        <mxCell id="1" parent="0" />
        <mxCell id="mKhACXzLoR_VBtiS50Ih-36" value="" style="rounded=0;whiteSpace=wrap;html=1;fillColor=#E6E6E6;" parent="1" vertex="1">
          <mxGeometry x="40" y="400" width="840" height="1030" as="geometry" />
        </mxCell>
        <mxCell id="mKhACXzLoR_VBtiS50Ih-16" value="" style="rounded=0;whiteSpace=wrap;html=1;fillColor=#B9E0A5;" parent="1" vertex="1">
          <mxGeometry x="40" y="40" width="320" height="320" as="geometry" />
        </mxCell>
        <mxCell id="mKhACXzLoR_VBtiS50Ih-4" value="Backend" style="text;html=1;strokeColor=none;fillColor=none;align=center;verticalAlign=middle;whiteSpace=wrap;rounded=0;" parent="1" vertex="1">
          <mxGeometry x="170" y="40" width="60" height="30" as="geometry" />
        </mxCell>
        <mxCell id="mKhACXzLoR_VBtiS50Ih-5" value="server.js" style="html=1;fillColor=#97D077;strokeColor=#FF3333;" parent="1" vertex="1">
          <mxGeometry x="230" y="240" width="110" height="50" as="geometry" />
        </mxCell>
        <mxCell id="mKhACXzLoR_VBtiS50Ih-7" value="node_modules" style="html=1;fillColor=#97D077;" parent="1" vertex="1">
          <mxGeometry x="145" y="80" width="110" height="50" as="geometry" />
        </mxCell>
        <mxCell id="mKhACXzLoR_VBtiS50Ih-15" value="mariaDB.js" style="html=1;fillColor=#97D077;" parent="1" vertex="1">
          <mxGeometry x="60" y="240" width="110" height="50" as="geometry" />
        </mxCell>
        <mxCell id="mKhACXzLoR_VBtiS50Ih-17" value="Use" style="endArrow=open;endSize=12;dashed=1;html=1;rounded=0;exitX=1;exitY=0.5;exitDx=0;exitDy=0;entryX=0.5;entryY=1;entryDx=0;entryDy=0;" parent="1" source="mKhACXzLoR_VBtiS50Ih-15" target="mKhACXzLoR_VBtiS50Ih-7" edge="1">
          <mxGeometry x="-0.6364" y="-25" width="160" relative="1" as="geometry">
            <mxPoint x="380" y="220" as="sourcePoint" />
            <mxPoint x="610" y="210" as="targetPoint" />
            <Array as="points">
              <mxPoint x="200" y="265" />
              <mxPoint x="200" y="170" />
            </Array>
            <mxPoint x="-25" y="25" as="offset" />
          </mxGeometry>
        </mxCell>
        <mxCell id="mKhACXzLoR_VBtiS50Ih-18" value="Use" style="endArrow=open;endSize=12;dashed=1;html=1;rounded=0;exitX=0;exitY=0.5;exitDx=0;exitDy=0;entryX=0.5;entryY=1;entryDx=0;entryDy=0;" parent="1" source="mKhACXzLoR_VBtiS50Ih-5" target="mKhACXzLoR_VBtiS50Ih-7" edge="1">
          <mxGeometry x="-0.6364" y="-25" width="160" relative="1" as="geometry">
            <mxPoint x="135" y="220" as="sourcePoint" />
            <mxPoint x="210" y="140" as="targetPoint" />
            <Array as="points">
              <mxPoint x="200" y="265" />
              <mxPoint x="200" y="170" />
            </Array>
            <mxPoint x="-25" y="25" as="offset" />
          </mxGeometry>
        </mxCell>
        <mxCell id="mKhACXzLoR_VBtiS50Ih-19" value="" style="endArrow=open;endFill=1;endSize=12;html=1;rounded=0;exitX=0.5;exitY=1;exitDx=0;exitDy=0;entryX=0.5;entryY=1;entryDx=0;entryDy=0;" parent="1" source="mKhACXzLoR_VBtiS50Ih-15" target="mKhACXzLoR_VBtiS50Ih-5" edge="1">
          <mxGeometry width="160" relative="1" as="geometry">
            <mxPoint x="160" y="360" as="sourcePoint" />
            <mxPoint x="240" y="370" as="targetPoint" />
            <Array as="points">
              <mxPoint x="115" y="330" />
              <mxPoint x="285" y="330" />
            </Array>
          </mxGeometry>
        </mxCell>
        <mxCell id="mKhACXzLoR_VBtiS50Ih-20" value="" style="rounded=0;whiteSpace=wrap;html=1;fillColor=#E6E6E6;" parent="1" vertex="1">
          <mxGeometry x="440" y="40" width="440" height="360" as="geometry" />
        </mxCell>
        <mxCell id="mKhACXzLoR_VBtiS50Ih-21" value="Frontend" style="text;html=1;strokeColor=none;fillColor=none;align=center;verticalAlign=middle;whiteSpace=wrap;rounded=0;" parent="1" vertex="1">
          <mxGeometry x="630" y="40" width="60" height="30" as="geometry" />
        </mxCell>
        <mxCell id="mKhACXzLoR_VBtiS50Ih-22" value="" style="rounded=0;whiteSpace=wrap;html=1;fillColor=#9AC7BF;" parent="1" vertex="1">
          <mxGeometry x="705" y="160" width="160" height="200" as="geometry" />
        </mxCell>
        <mxCell id="mKhACXzLoR_VBtiS50Ih-23" value="Public" style="text;html=1;strokeColor=none;fillColor=none;align=center;verticalAlign=middle;whiteSpace=wrap;rounded=0;" parent="1" vertex="1">
          <mxGeometry x="755" y="160" width="60" height="30" as="geometry" />
        </mxCell>
        <mxCell id="mKhACXzLoR_VBtiS50Ih-24" value="node_modules" style="html=1;fillColor=#CCCCCC;" parent="1" vertex="1">
          <mxGeometry x="590" y="80" width="110" height="50" as="geometry" />
        </mxCell>
        <mxCell id="mKhACXzLoR_VBtiS50Ih-25" value="" style="rounded=0;whiteSpace=wrap;html=1;fillColor=#A9C4EB;" parent="1" vertex="1">
          <mxGeometry x="60" y="420" width="800" height="990" as="geometry" />
        </mxCell>
        <mxCell id="mKhACXzLoR_VBtiS50Ih-26" value="Src" style="text;html=1;strokeColor=none;fillColor=none;align=center;verticalAlign=middle;whiteSpace=wrap;rounded=0;" parent="1" vertex="1">
          <mxGeometry x="430" y="420" width="60" height="30" as="geometry" />
        </mxCell>
        <mxCell id="mKhACXzLoR_VBtiS50Ih-27" value="index.html" style="html=1;fillColor=#67AB9F;" parent="1" vertex="1">
          <mxGeometry x="730" y="220" width="110" height="50" as="geometry" />
        </mxCell>
        <mxCell id="mKhACXzLoR_VBtiS50Ih-28" value="Use" style="endArrow=open;endSize=12;dashed=1;html=1;rounded=0;exitX=0.5;exitY=0;exitDx=0;exitDy=0;entryX=0.5;entryY=1;entryDx=0;entryDy=0;" parent="1" source="mKhACXzLoR_VBtiS50Ih-27" target="mKhACXzLoR_VBtiS50Ih-24" edge="1">
          <mxGeometry x="0.6522" y="15" width="160" relative="1" as="geometry">
            <mxPoint x="320" y="220" as="sourcePoint" />
            <mxPoint x="235" y="140" as="targetPoint" />
            <Array as="points">
              <mxPoint x="785" y="210" />
              <mxPoint x="645" y="210" />
            </Array>
            <mxPoint as="offset" />
          </mxGeometry>
        </mxCell>
        <mxCell id="mKhACXzLoR_VBtiS50Ih-31" value="package.json" style="html=1;fillColor=#CCCCCC;strokeColor=#FF3333;" parent="1" vertex="1">
          <mxGeometry x="480" y="240" width="110" height="50" as="geometry" />
        </mxCell>
        <mxCell id="mKhACXzLoR_VBtiS50Ih-32" value="package-lock.json" style="html=1;fillColor=#CCCCCC;" parent="1" vertex="1">
          <mxGeometry x="480" y="160" width="110" height="50" as="geometry" />
        </mxCell>
        <mxCell id="mKhACXzLoR_VBtiS50Ih-33" value="Use" style="endArrow=open;endSize=12;dashed=1;html=1;rounded=0;exitX=1;exitY=0.5;exitDx=0;exitDy=0;entryX=0.5;entryY=1;entryDx=0;entryDy=0;" parent="1" source="mKhACXzLoR_VBtiS50Ih-32" target="mKhACXzLoR_VBtiS50Ih-24" edge="1">
          <mxGeometry x="0.3333" y="15" width="160" relative="1" as="geometry">
            <mxPoint x="795" y="230" as="sourcePoint" />
            <mxPoint x="655" y="140" as="targetPoint" />
            <Array as="points">
              <mxPoint x="645" y="185" />
            </Array>
            <mxPoint as="offset" />
          </mxGeometry>
        </mxCell>
        <mxCell id="mKhACXzLoR_VBtiS50Ih-34" value="Use" style="endArrow=open;endSize=12;dashed=1;html=1;rounded=0;exitX=1;exitY=0.5;exitDx=0;exitDy=0;entryX=0.5;entryY=1;entryDx=0;entryDy=0;" parent="1" source="mKhACXzLoR_VBtiS50Ih-31" target="mKhACXzLoR_VBtiS50Ih-24" edge="1">
          <mxGeometry x="0.6" y="15" width="160" relative="1" as="geometry">
            <mxPoint x="600" y="340" as="sourcePoint" />
            <mxPoint x="760" y="340" as="targetPoint" />
            <Array as="points">
              <mxPoint x="645" y="265" />
            </Array>
            <mxPoint as="offset" />
          </mxGeometry>
        </mxCell>
        <mxCell id="mKhACXzLoR_VBtiS50Ih-35" value="Use" style="endArrow=open;endSize=12;dashed=1;html=1;rounded=0;exitX=0;exitY=0.5;exitDx=0;exitDy=0;entryX=1;entryY=0.5;entryDx=0;entryDy=0;" parent="1" source="mKhACXzLoR_VBtiS50Ih-31" target="mKhACXzLoR_VBtiS50Ih-5" edge="1">
          <mxGeometry y="15" width="160" relative="1" as="geometry">
            <mxPoint x="600" y="330" as="sourcePoint" />
            <mxPoint x="760" y="330" as="targetPoint" />
            <Array as="points" />
            <mxPoint as="offset" />
          </mxGeometry>
        </mxCell>
        <mxCell id="mKhACXzLoR_VBtiS50Ih-39" value="package.json" style="html=1;fillColor=#97D077;" parent="1" vertex="1">
          <mxGeometry x="60" y="160" width="110" height="50" as="geometry" />
        </mxCell>
        <mxCell id="mKhACXzLoR_VBtiS50Ih-40" value="package-lock.json" style="html=1;fillColor=#97D077;" parent="1" vertex="1">
          <mxGeometry x="230" y="160" width="110" height="50" as="geometry" />
        </mxCell>
        <mxCell id="mKhACXzLoR_VBtiS50Ih-41" value="Use" style="endArrow=open;endSize=12;dashed=1;html=1;rounded=0;exitX=1;exitY=0.5;exitDx=0;exitDy=0;" parent="1" source="mKhACXzLoR_VBtiS50Ih-39" edge="1">
          <mxGeometry x="-0.2941" y="-105" width="160" relative="1" as="geometry">
            <mxPoint x="700" y="320" as="sourcePoint" />
            <mxPoint x="200" y="130" as="targetPoint" />
            <Array as="points">
              <mxPoint x="200" y="185" />
            </Array>
            <mxPoint x="-105" y="105" as="offset" />
          </mxGeometry>
        </mxCell>
        <mxCell id="mKhACXzLoR_VBtiS50Ih-42" value="Use" style="endArrow=open;endSize=12;dashed=1;html=1;rounded=0;exitX=0;exitY=0.5;exitDx=0;exitDy=0;entryX=0.5;entryY=1;entryDx=0;entryDy=0;" parent="1" source="mKhACXzLoR_VBtiS50Ih-40" target="mKhACXzLoR_VBtiS50Ih-7" edge="1">
          <mxGeometry x="-0.2941" y="-105" width="160" relative="1" as="geometry">
            <mxPoint x="700" y="320" as="sourcePoint" />
            <mxPoint x="860" y="320" as="targetPoint" />
            <Array as="points">
              <mxPoint x="200" y="185" />
            </Array>
            <mxPoint x="-105" y="105" as="offset" />
          </mxGeometry>
        </mxCell>
        <mxCell id="mKhACXzLoR_VBtiS50Ih-43" value="manifest.json" style="html=1;fillColor=#67AB9F;" parent="1" vertex="1">
          <mxGeometry x="730" y="290" width="110" height="50" as="geometry" />
        </mxCell>
        <mxCell id="mKhACXzLoR_VBtiS50Ih-44" value="" style="rounded=0;whiteSpace=wrap;html=1;fillColor=#FFE599;" parent="1" vertex="1">
          <mxGeometry x="105" y="470" width="360" height="410" as="geometry" />
        </mxCell>
        <mxCell id="mKhACXzLoR_VBtiS50Ih-45" value="" style="rounded=0;whiteSpace=wrap;html=1;fillColor=#CDA2BE;" parent="1" vertex="1">
          <mxGeometry x="150" y="970" width="650" height="390" as="geometry" />
        </mxCell>
        <mxCell id="mKhACXzLoR_VBtiS50Ih-46" value="Components" style="text;html=1;strokeColor=none;fillColor=none;align=center;verticalAlign=middle;whiteSpace=wrap;rounded=0;" parent="1" vertex="1">
          <mxGeometry x="440" y="975" width="60" height="30" as="geometry" />
        </mxCell>
        <mxCell id="mKhACXzLoR_VBtiS50Ih-47" value="Pages" style="text;html=1;align=center;verticalAlign=middle;resizable=0;points=[];autosize=1;strokeColor=none;fillColor=none;" parent="1" vertex="1">
          <mxGeometry x="260" y="475" width="50" height="20" as="geometry" />
        </mxCell>
        <mxCell id="mKhACXzLoR_VBtiS50Ih-48" value="Webpages.js" style="html=1;fillColor=#FFD966;" parent="1" vertex="1">
          <mxGeometry x="124" y="510" width="110" height="50" as="geometry" />
        </mxCell>
        <mxCell id="mKhACXzLoR_VBtiS50Ih-49" value="pages.css" style="html=1;fillColor=#FFD966;" parent="1" vertex="1">
          <mxGeometry x="124" y="600" width="110" height="50" as="geometry" />
        </mxCell>
        <mxCell id="mKhACXzLoR_VBtiS50Ih-50" value="Co2.js" style="html=1;fillColor=#FFD966;" parent="1" vertex="1">
          <mxGeometry x="334" y="690" width="110" height="50" as="geometry" />
        </mxCell>
        <mxCell id="mKhACXzLoR_VBtiS50Ih-51" value="Temperatur.js" style="html=1;fillColor=#FFD966;" parent="1" vertex="1">
          <mxGeometry x="334" y="810" width="110" height="50" as="geometry" />
        </mxCell>
        <mxCell id="mKhACXzLoR_VBtiS50Ih-52" value="Dashboard.js" style="html=1;fillColor=#FFD966;" parent="1" vertex="1">
          <mxGeometry x="124" y="810" width="110" height="50" as="geometry" />
        </mxCell>
        <mxCell id="mKhACXzLoR_VBtiS50Ih-53" value="Luftfeuchtigkeit.js" style="html=1;fillColor=#FFD966;" parent="1" vertex="1">
          <mxGeometry x="334" y="750" width="110" height="50" as="geometry" />
        </mxCell>
        <mxCell id="mKhACXzLoR_VBtiS50Ih-54" value="Impressum.js" style="html=1;fillColor=#FFD966;" parent="1" vertex="1">
          <mxGeometry x="334" y="570" width="110" height="50" as="geometry" />
        </mxCell>
        <mxCell id="mKhACXzLoR_VBtiS50Ih-55" value="InternalServer.js" style="html=1;fillColor=#FFD966;" parent="1" vertex="1">
          <mxGeometry x="124" y="750" width="110" height="50" as="geometry" />
        </mxCell>
        <mxCell id="mKhACXzLoR_VBtiS50Ih-56" value="home.js" style="html=1;fillColor=#FFD966;" parent="1" vertex="1">
          <mxGeometry x="334" y="510" width="110" height="50" as="geometry" />
        </mxCell>
        <mxCell id="mKhACXzLoR_VBtiS50Ih-58" style="edgeStyle=orthogonalEdgeStyle;rounded=0;orthogonalLoop=1;jettySize=auto;html=1;exitX=0.5;exitY=1;exitDx=0;exitDy=0;" parent="1" source="mKhACXzLoR_VBtiS50Ih-53" target="mKhACXzLoR_VBtiS50Ih-53" edge="1">
          <mxGeometry relative="1" as="geometry" />
        </mxCell>
        <mxCell id="mKhACXzLoR_VBtiS50Ih-61" value="" style="endArrow=open;endFill=1;endSize=12;html=1;rounded=0;exitX=1;exitY=0.5;exitDx=0;exitDy=0;entryX=0;entryY=0.5;entryDx=0;entryDy=0;" parent="1" source="mKhACXzLoR_VBtiS50Ih-48" target="mKhACXzLoR_VBtiS50Ih-56" edge="1">
          <mxGeometry width="160" relative="1" as="geometry">
            <mxPoint x="14" y="850" as="sourcePoint" />
            <mxPoint x="174" y="850" as="targetPoint" />
          </mxGeometry>
        </mxCell>
        <mxCell id="mKhACXzLoR_VBtiS50Ih-62" value="" style="endArrow=open;endFill=1;endSize=12;html=1;rounded=0;exitX=1;exitY=0.5;exitDx=0;exitDy=0;entryX=1;entryY=0.5;entryDx=0;entryDy=0;" parent="1" source="mKhACXzLoR_VBtiS50Ih-48" target="mKhACXzLoR_VBtiS50Ih-57" edge="1">
          <mxGeometry width="160" relative="1" as="geometry">
            <mxPoint x="244" y="705" as="sourcePoint" />
            <mxPoint x="374" y="595" as="targetPoint" />
            <Array as="points">
              <mxPoint x="280" y="535" />
              <mxPoint x="280" y="715" />
            </Array>
          </mxGeometry>
        </mxCell>
        <mxCell id="mKhACXzLoR_VBtiS50Ih-63" value="" style="endArrow=open;endFill=1;endSize=12;html=1;rounded=0;exitX=1;exitY=0.5;exitDx=0;exitDy=0;entryX=0;entryY=0.5;entryDx=0;entryDy=0;" parent="1" source="mKhACXzLoR_VBtiS50Ih-48" target="mKhACXzLoR_VBtiS50Ih-54" edge="1">
          <mxGeometry width="160" relative="1" as="geometry">
            <mxPoint x="254" y="715" as="sourcePoint" />
            <mxPoint x="384" y="605" as="targetPoint" />
            <Array as="points">
              <mxPoint x="280" y="535" />
              <mxPoint x="280" y="595" />
            </Array>
          </mxGeometry>
        </mxCell>
        <mxCell id="mKhACXzLoR_VBtiS50Ih-64" value="" style="endArrow=open;endFill=1;endSize=12;html=1;rounded=0;exitX=1;exitY=0.5;exitDx=0;exitDy=0;entryX=0;entryY=0.5;entryDx=0;entryDy=0;" parent="1" source="mKhACXzLoR_VBtiS50Ih-48" target="mKhACXzLoR_VBtiS50Ih-53" edge="1">
          <mxGeometry width="160" relative="1" as="geometry">
            <mxPoint x="264" y="725" as="sourcePoint" />
            <mxPoint x="394" y="615" as="targetPoint" />
            <Array as="points">
              <mxPoint x="280" y="535" />
              <mxPoint x="280" y="775" />
            </Array>
          </mxGeometry>
        </mxCell>
        <mxCell id="mKhACXzLoR_VBtiS50Ih-66" value="" style="endArrow=open;endFill=1;endSize=12;html=1;rounded=0;exitX=1;exitY=0.5;exitDx=0;exitDy=0;entryX=0;entryY=0.5;entryDx=0;entryDy=0;" parent="1" source="mKhACXzLoR_VBtiS50Ih-48" target="mKhACXzLoR_VBtiS50Ih-51" edge="1">
          <mxGeometry width="160" relative="1" as="geometry">
            <mxPoint x="284" y="745" as="sourcePoint" />
            <mxPoint x="414" y="635" as="targetPoint" />
            <Array as="points">
              <mxPoint x="280" y="535" />
              <mxPoint x="280" y="835" />
            </Array>
          </mxGeometry>
        </mxCell>
        <mxCell id="mKhACXzLoR_VBtiS50Ih-67" value="" style="endArrow=open;endFill=1;endSize=12;html=1;rounded=0;exitX=1;exitY=0.5;exitDx=0;exitDy=0;entryX=0;entryY=0.5;entryDx=0;entryDy=0;" parent="1" source="mKhACXzLoR_VBtiS50Ih-48" target="mKhACXzLoR_VBtiS50Ih-50" edge="1">
          <mxGeometry width="160" relative="1" as="geometry">
            <mxPoint x="294" y="755" as="sourcePoint" />
            <mxPoint x="424" y="645" as="targetPoint" />
            <Array as="points">
              <mxPoint x="280" y="535" />
              <mxPoint x="280" y="715" />
            </Array>
          </mxGeometry>
        </mxCell>
        <mxCell id="mKhACXzLoR_VBtiS50Ih-69" value="" style="endArrow=open;endFill=1;endSize=12;html=1;rounded=0;exitX=1;exitY=0.5;exitDx=0;exitDy=0;entryX=1;entryY=0.5;entryDx=0;entryDy=0;" parent="1" source="mKhACXzLoR_VBtiS50Ih-48" target="mKhACXzLoR_VBtiS50Ih-55" edge="1">
          <mxGeometry width="160" relative="1" as="geometry">
            <mxPoint x="314" y="775" as="sourcePoint" />
            <mxPoint x="444" y="665" as="targetPoint" />
            <Array as="points">
              <mxPoint x="280" y="535" />
              <mxPoint x="280" y="775" />
            </Array>
          </mxGeometry>
        </mxCell>
        <mxCell id="mKhACXzLoR_VBtiS50Ih-70" value="Use" style="endArrow=open;endSize=12;dashed=1;html=1;rounded=0;entryX=0.5;entryY=0;entryDx=0;entryDy=0;exitX=0.5;exitY=1;exitDx=0;exitDy=0;" parent="1" source="mKhACXzLoR_VBtiS50Ih-48" target="mKhACXzLoR_VBtiS50Ih-49" edge="1">
          <mxGeometry y="26" width="160" relative="1" as="geometry">
            <mxPoint x="4" y="725" as="sourcePoint" />
            <mxPoint x="174" y="850" as="targetPoint" />
            <mxPoint as="offset" />
          </mxGeometry>
        </mxCell>
        <mxCell id="mKhACXzLoR_VBtiS50Ih-71" value="" style="whiteSpace=wrap;html=1;fillColor=#A680B8;" parent="1" vertex="1">
          <mxGeometry x="190" y="1010" width="180" height="290" as="geometry" />
        </mxCell>
        <mxCell id="mKhACXzLoR_VBtiS50Ih-72" value="Component.css" style="whiteSpace=wrap;html=1;fillColor=#B5739D;" parent="1" vertex="1">
          <mxGeometry x="420" y="1180" width="120" height="60" as="geometry" />
        </mxCell>
        <mxCell id="mKhACXzLoR_VBtiS50Ih-74" value="DataTable.js" style="html=1;fillColor=#B5739D;" parent="1" vertex="1">
          <mxGeometry x="210" y="1050" width="110" height="50" as="geometry" />
        </mxCell>
        <mxCell id="mKhACXzLoR_VBtiS50Ih-75" value="Co2Table.js" style="html=1;fillColor=#B5739D;" parent="1" vertex="1">
          <mxGeometry x="210" y="1110" width="110" height="50" as="geometry" />
        </mxCell>
        <mxCell id="mKhACXzLoR_VBtiS50Ih-76" value="LuftTable.js" style="html=1;fillColor=#B5739D;" parent="1" vertex="1">
          <mxGeometry x="210" y="1170" width="110" height="50" as="geometry" />
        </mxCell>
        <mxCell id="mKhACXzLoR_VBtiS50Ih-78" value="TempTable.js" style="html=1;fillColor=#B5739D;" parent="1" vertex="1">
          <mxGeometry x="210" y="1230" width="110" height="50" as="geometry" />
        </mxCell>
        <mxCell id="mKhACXzLoR_VBtiS50Ih-87" value="Chart.js" style="whiteSpace=wrap;html=1;fillColor=#B5739D;" parent="1" vertex="1">
          <mxGeometry x="650" y="1220" width="120" height="60" as="geometry" />
        </mxCell>
        <mxCell id="mKhACXzLoR_VBtiS50Ih-88" value="Footer.js" style="whiteSpace=wrap;html=1;fillColor=#B5739D;" parent="1" vertex="1">
          <mxGeometry x="650" y="1150" width="120" height="60" as="geometry" />
        </mxCell>
        <mxCell id="mKhACXzLoR_VBtiS50Ih-89" value="MailService.js" style="whiteSpace=wrap;html=1;fillColor=#B5739D;" parent="1" vertex="1">
          <mxGeometry x="650" y="1080" width="120" height="60" as="geometry" />
        </mxCell>
        <mxCell id="mKhACXzLoR_VBtiS50Ih-90" value="Navbar.js" style="whiteSpace=wrap;html=1;fillColor=#B5739D;" parent="1" vertex="1">
          <mxGeometry x="650" y="1010" width="120" height="60" as="geometry" />
        </mxCell>
        <mxCell id="mKhACXzLoR_VBtiS50Ih-92" value="" style="endArrow=block;dashed=1;endFill=0;endSize=12;html=1;rounded=0;exitX=1;exitY=0.5;exitDx=0;exitDy=0;entryX=0;entryY=0.5;entryDx=0;entryDy=0;" parent="1" source="mKhACXzLoR_VBtiS50Ih-75" target="mKhACXzLoR_VBtiS50Ih-85" edge="1">
          <mxGeometry width="160" relative="1" as="geometry">
            <mxPoint x="330" y="1085" as="sourcePoint" />
            <mxPoint x="400" y="1107" as="targetPoint" />
            <Array as="points">
              <mxPoint x="350" y="1135" />
              <mxPoint x="350" y="1097" />
            </Array>
          </mxGeometry>
        </mxCell>
        <mxCell id="mKhACXzLoR_VBtiS50Ih-97" value="" style="endArrow=block;dashed=1;endFill=0;endSize=12;html=1;rounded=0;exitX=1;exitY=0.5;exitDx=0;exitDy=0;entryX=0;entryY=0.5;entryDx=0;entryDy=0;" parent="1" source="mKhACXzLoR_VBtiS50Ih-76" target="mKhACXzLoR_VBtiS50Ih-85" edge="1">
          <mxGeometry width="160" relative="1" as="geometry">
            <mxPoint x="330" y="1145" as="sourcePoint" />
            <mxPoint x="400" y="1107" as="targetPoint" />
            <Array as="points">
              <mxPoint x="350" y="1195" />
              <mxPoint x="350" y="1097" />
            </Array>
          </mxGeometry>
        </mxCell>
        <mxCell id="mKhACXzLoR_VBtiS50Ih-99" value="" style="endArrow=block;dashed=1;endFill=0;endSize=12;html=1;rounded=0;exitX=1;exitY=0.5;exitDx=0;exitDy=0;entryX=0;entryY=0.5;entryDx=0;entryDy=0;" parent="1" source="mKhACXzLoR_VBtiS50Ih-78" target="mKhACXzLoR_VBtiS50Ih-85" edge="1">
          <mxGeometry width="160" relative="1" as="geometry">
            <mxPoint x="350" y="1165" as="sourcePoint" />
            <mxPoint x="420" y="1127" as="targetPoint" />
            <Array as="points">
              <mxPoint x="350" y="1255" />
              <mxPoint x="350" y="1097" />
            </Array>
          </mxGeometry>
        </mxCell>
        <mxCell id="mKhACXzLoR_VBtiS50Ih-100" value="App.js" style="html=1;fillColor=#7EA6E0;" parent="1" vertex="1">
          <mxGeometry x="680" y="650" width="110" height="50" as="geometry" />
        </mxCell>
        <mxCell id="mKhACXzLoR_VBtiS50Ih-101" value="App.css" style="html=1;fillColor=#7EA6E0;" parent="1" vertex="1">
          <mxGeometry x="520" y="740" width="110" height="50" as="geometry" />
        </mxCell>
        <mxCell id="mKhACXzLoR_VBtiS50Ih-102" value="Index.js" style="html=1;fillColor=#7EA6E0;" parent="1" vertex="1">
          <mxGeometry x="520" y="650" width="110" height="50" as="geometry" />
        </mxCell>
        <mxCell id="mKhACXzLoR_VBtiS50Ih-103" value="Index.css" style="html=1;fillColor=#7EA6E0;" parent="1" vertex="1">
          <mxGeometry x="520" y="560" width="110" height="50" as="geometry" />
        </mxCell>
        <mxCell id="mKhACXzLoR_VBtiS50Ih-104" value="SetupTest.js&lt;span style=&quot;color: rgba(0 , 0 , 0 , 0) ; font-family: monospace ; font-size: 0px&quot;&gt;%3CmxGraphModel%3E%3Croot%3E%3CmxCell%20id%3D%220%22%2F%3E%3CmxCell%20id%3D%221%22%20parent%3D%220%22%2F%3E%3CmxCell%20id%3D%222%22%20value%3D%22App.js%22%20style%3D%22html%3D1%3BfillColor%3D%237EA6E0%3B%22%20vertex%3D%221%22%20parent%3D%221%22%3E%3CmxGeometry%20x%3D%22170%22%20y%3D%22510%22%20width%3D%22110%22%20height%3D%2250%22%20as%3D%22geometry%22%2F%3E%3C%2FmxCell%3E%3C%2Froot%3E%3C%2FmxGraphModel%3E&lt;/span&gt;" style="html=1;fillColor=#7EA6E0;" parent="1" vertex="1">
          <mxGeometry x="520" y="470" width="110" height="50" as="geometry" />
        </mxCell>
        <mxCell id="mKhACXzLoR_VBtiS50Ih-105" value="ReportWebVitals.js" style="html=1;fillColor=#7EA6E0;" parent="1" vertex="1">
          <mxGeometry x="680" y="470" width="110" height="50" as="geometry" />
        </mxCell>
        <mxCell id="mKhACXzLoR_VBtiS50Ih-106" value="App.test.js" style="html=1;fillColor=#7EA6E0;" parent="1" vertex="1">
          <mxGeometry x="680" y="560" width="110" height="50" as="geometry" />
        </mxCell>
        <mxCell id="mKhACXzLoR_VBtiS50Ih-113" value="" style="whiteSpace=wrap;html=1;fillColor=#A680B8;" parent="1" vertex="1">
          <mxGeometry x="370" y="1010" width="220" height="150" as="geometry" />
        </mxCell>
        <mxCell id="mKhACXzLoR_VBtiS50Ih-107" value="Use" style="endArrow=open;endSize=12;dashed=1;html=1;rounded=0;entryX=0.5;entryY=1;entryDx=0;entryDy=0;exitX=0.5;exitY=0;exitDx=0;exitDy=0;" parent="1" source="mKhACXzLoR_VBtiS50Ih-102" target="mKhACXzLoR_VBtiS50Ih-103" edge="1">
          <mxGeometry y="26" width="160" relative="1" as="geometry">
            <mxPoint x="575" y="640" as="sourcePoint" />
            <mxPoint x="794" y="790" as="targetPoint" />
            <mxPoint as="offset" />
            <Array as="points" />
          </mxGeometry>
        </mxCell>
        <mxCell id="mKhACXzLoR_VBtiS50Ih-108" value="Use" style="endArrow=open;endSize=12;dashed=1;html=1;rounded=0;entryX=1;entryY=0.5;entryDx=0;entryDy=0;exitX=0.5;exitY=1;exitDx=0;exitDy=0;" parent="1" source="mKhACXzLoR_VBtiS50Ih-100" target="mKhACXzLoR_VBtiS50Ih-101" edge="1">
          <mxGeometry x="-0.2353" y="10" width="160" relative="1" as="geometry">
            <mxPoint x="735" y="700" as="sourcePoint" />
            <mxPoint x="1174" y="810" as="targetPoint" />
            <mxPoint as="offset" />
            <Array as="points">
              <mxPoint x="735" y="765" />
            </Array>
          </mxGeometry>
        </mxCell>
        <mxCell id="mKhACXzLoR_VBtiS50Ih-109" value="Use" style="endArrow=open;endSize=12;dashed=1;html=1;rounded=0;entryX=0.5;entryY=0;entryDx=0;entryDy=0;exitX=0.5;exitY=1;exitDx=0;exitDy=0;" parent="1" source="mKhACXzLoR_VBtiS50Ih-106" target="mKhACXzLoR_VBtiS50Ih-100" edge="1">
          <mxGeometry y="26" width="160" relative="1" as="geometry">
            <mxPoint x="1184" y="690" as="sourcePoint" />
            <mxPoint x="1184" y="730" as="targetPoint" />
            <mxPoint as="offset" />
          </mxGeometry>
        </mxCell>
        <mxCell id="mKhACXzLoR_VBtiS50Ih-110" value="Use" style="endArrow=open;endSize=12;dashed=1;html=1;rounded=0;entryX=0;entryY=0.5;entryDx=0;entryDy=0;exitX=1;exitY=0.5;exitDx=0;exitDy=0;" parent="1" source="mKhACXzLoR_VBtiS50Ih-102" target="mKhACXzLoR_VBtiS50Ih-100" edge="1">
          <mxGeometry x="-0.2" y="-15" width="160" relative="1" as="geometry">
            <mxPoint x="1034" y="710" as="sourcePoint" />
            <mxPoint x="1034" y="750" as="targetPoint" />
            <mxPoint as="offset" />
          </mxGeometry>
        </mxCell>
        <mxCell id="mKhACXzLoR_VBtiS50Ih-82" value="Formate.js" style="swimlane;fontStyle=1;align=center;verticalAlign=top;childLayout=stackLayout;horizontal=1;startSize=26;horizontalStack=0;resizeParent=1;resizeParentMax=0;resizeLast=0;collapsible=1;marginBottom=0;fillColor=#B5739D;" parent="1" vertex="1">
          <mxGeometry x="390" y="1050" width="180" height="86" as="geometry" />
        </mxCell>
        <mxCell id="mKhACXzLoR_VBtiS50Ih-84" value="" style="line;strokeWidth=1;fillColor=none;align=left;verticalAlign=middle;spacingTop=-1;spacingLeft=3;spacingRight=3;rotatable=0;labelPosition=right;points=[];portConstraint=eastwest;" parent="mKhACXzLoR_VBtiS50Ih-82" vertex="1">
          <mxGeometry y="26" width="180" height="8" as="geometry" />
        </mxCell>
        <mxCell id="mKhACXzLoR_VBtiS50Ih-85" value="+ changeDatumFormat(datum)" style="text;strokeColor=none;fillColor=none;align=left;verticalAlign=top;spacingLeft=4;spacingRight=4;overflow=hidden;rotatable=0;points=[[0,0.5],[1,0.5]];portConstraint=eastwest;" parent="mKhACXzLoR_VBtiS50Ih-82" vertex="1">
          <mxGeometry y="34" width="180" height="26" as="geometry" />
        </mxCell>
        <mxCell id="mKhACXzLoR_VBtiS50Ih-86" value="+ changeTimeFormat(time)" style="text;strokeColor=none;fillColor=none;align=left;verticalAlign=top;spacingLeft=4;spacingRight=4;overflow=hidden;rotatable=0;points=[[0,0.5],[1,0.5]];portConstraint=eastwest;" parent="mKhACXzLoR_VBtiS50Ih-82" vertex="1">
          <mxGeometry y="60" width="180" height="26" as="geometry" />
        </mxCell>
        <mxCell id="mKhACXzLoR_VBtiS50Ih-73" value="Data" style="text;html=1;align=center;verticalAlign=middle;resizable=0;points=[];autosize=1;strokeColor=none;fillColor=none;" parent="1" vertex="1">
          <mxGeometry x="260" y="1020" width="40" height="20" as="geometry" />
        </mxCell>
        <mxCell id="mKhACXzLoR_VBtiS50Ih-91" value="" style="endArrow=block;dashed=1;endFill=0;endSize=12;html=1;rounded=0;exitX=1;exitY=0.5;exitDx=0;exitDy=0;entryX=0;entryY=0.5;entryDx=0;entryDy=0;" parent="1" source="mKhACXzLoR_VBtiS50Ih-74" target="mKhACXzLoR_VBtiS50Ih-85" edge="1">
          <mxGeometry width="160" relative="1" as="geometry">
            <mxPoint x="-70" y="1380" as="sourcePoint" />
            <mxPoint x="90" y="1380" as="targetPoint" />
            <Array as="points">
              <mxPoint x="350" y="1075" />
              <mxPoint x="350" y="1097" />
            </Array>
          </mxGeometry>
        </mxCell>
        <mxCell id="mKhACXzLoR_VBtiS50Ih-115" value="Use" style="endArrow=open;endSize=12;dashed=1;html=1;rounded=0;entryX=0.5;entryY=1;entryDx=0;entryDy=0;exitX=0;exitY=0.5;exitDx=0;exitDy=0;" parent="1" source="mKhACXzLoR_VBtiS50Ih-89" target="mKhACXzLoR_VBtiS50Ih-72" edge="1">
          <mxGeometry x="0.6522" y="-20" width="160" relative="1" as="geometry">
            <mxPoint x="440" y="1310" as="sourcePoint" />
            <mxPoint x="600" y="1310" as="targetPoint" />
            <Array as="points">
              <mxPoint x="620" y="1110" />
              <mxPoint x="620" y="1320" />
              <mxPoint x="480" y="1320" />
            </Array>
            <mxPoint x="-20" y="20" as="offset" />
          </mxGeometry>
        </mxCell>
        <mxCell id="mKhACXzLoR_VBtiS50Ih-116" value="Use" style="endArrow=open;endSize=12;dashed=1;html=1;rounded=0;entryX=0.5;entryY=1;entryDx=0;entryDy=0;exitX=0;exitY=0.5;exitDx=0;exitDy=0;" parent="1" source="mKhACXzLoR_VBtiS50Ih-88" target="mKhACXzLoR_VBtiS50Ih-72" edge="1">
          <mxGeometry x="0.5897" y="-20" width="160" relative="1" as="geometry">
            <mxPoint x="450" y="1320" as="sourcePoint" />
            <mxPoint x="490" y="1250" as="targetPoint" />
            <Array as="points">
              <mxPoint x="620" y="1180" />
              <mxPoint x="620" y="1320" />
              <mxPoint x="480" y="1320" />
            </Array>
            <mxPoint x="-20" y="20" as="offset" />
          </mxGeometry>
        </mxCell>
        <mxCell id="mKhACXzLoR_VBtiS50Ih-117" value="Use" style="endArrow=open;endSize=12;dashed=1;html=1;rounded=0;entryX=0.5;entryY=1;entryDx=0;entryDy=0;exitX=0;exitY=0.5;exitDx=0;exitDy=0;" parent="1" source="mKhACXzLoR_VBtiS50Ih-87" target="mKhACXzLoR_VBtiS50Ih-72" edge="1">
          <mxGeometry x="0.5" y="-20" width="160" relative="1" as="geometry">
            <mxPoint x="460" y="1330" as="sourcePoint" />
            <mxPoint x="500" y="1260" as="targetPoint" />
            <Array as="points">
              <mxPoint x="620" y="1250" />
              <mxPoint x="620" y="1320" />
              <mxPoint x="480" y="1320" />
            </Array>
            <mxPoint x="-20" y="20" as="offset" />
          </mxGeometry>
        </mxCell>
        <mxCell id="mKhACXzLoR_VBtiS50Ih-118" value="Use" style="endArrow=open;endSize=12;dashed=1;html=1;rounded=0;entryX=0.5;entryY=1;entryDx=0;entryDy=0;exitX=0;exitY=0.5;exitDx=0;exitDy=0;" parent="1" source="mKhACXzLoR_VBtiS50Ih-90" target="mKhACXzLoR_VBtiS50Ih-72" edge="1">
          <mxGeometry x="0.6981" y="-20" width="160" relative="1" as="geometry">
            <mxPoint x="470" y="1340" as="sourcePoint" />
            <mxPoint x="510" y="1270" as="targetPoint" />
            <Array as="points">
              <mxPoint x="620" y="1040" />
              <mxPoint x="620" y="1320" />
              <mxPoint x="480" y="1320" />
            </Array>
            <mxPoint x="-20" y="20" as="offset" />
          </mxGeometry>
        </mxCell>
        <mxCell id="mKhACXzLoR_VBtiS50Ih-119" value="Use" style="endArrow=open;endSize=12;dashed=1;html=1;rounded=0;entryX=0.5;entryY=1;entryDx=0;entryDy=0;exitX=0;exitY=0.75;exitDx=0;exitDy=0;" parent="1" source="mKhACXzLoR_VBtiS50Ih-78" target="mKhACXzLoR_VBtiS50Ih-72" edge="1">
          <mxGeometry x="0.6681" y="-20" width="160" relative="1" as="geometry">
            <mxPoint x="480" y="1360" as="sourcePoint" />
            <mxPoint x="520" y="1280" as="targetPoint" />
            <Array as="points">
              <mxPoint x="170" y="1268" />
              <mxPoint x="170" y="1320" />
              <mxPoint x="480" y="1320" />
            </Array>
            <mxPoint x="-20" y="20" as="offset" />
          </mxGeometry>
        </mxCell>
        <mxCell id="mKhACXzLoR_VBtiS50Ih-120" value="" style="endArrow=open;endFill=1;endSize=12;html=1;rounded=0;exitX=1;exitY=0.5;exitDx=0;exitDy=0;entryX=0.5;entryY=0;entryDx=0;entryDy=0;" parent="1" source="mKhACXzLoR_VBtiS50Ih-100" target="mKhACXzLoR_VBtiS50Ih-90" edge="1">
          <mxGeometry width="160" relative="1" as="geometry">
            <mxPoint x="600" y="830" as="sourcePoint" />
            <mxPoint x="760" y="830" as="targetPoint" />
            <Array as="points">
              <mxPoint x="830" y="675" />
              <mxPoint x="830" y="940" />
              <mxPoint x="710" y="940" />
            </Array>
          </mxGeometry>
        </mxCell>
        <mxCell id="mKhACXzLoR_VBtiS50Ih-121" value="" style="endArrow=open;endFill=1;endSize=12;html=1;rounded=0;entryX=0;entryY=0.5;entryDx=0;entryDy=0;exitX=1;exitY=0.5;exitDx=0;exitDy=0;" parent="1" source="mKhACXzLoR_VBtiS50Ih-100" target="mKhACXzLoR_VBtiS50Ih-48" edge="1">
          <mxGeometry width="160" relative="1" as="geometry">
            <mxPoint x="790" y="690" as="sourcePoint" />
            <mxPoint x="710" y="1010" as="targetPoint" />
            <Array as="points">
              <mxPoint x="830" y="675" />
              <mxPoint x="830" y="450" />
              <mxPoint x="80" y="450" />
              <mxPoint x="80" y="535" />
            </Array>
          </mxGeometry>
        </mxCell>
        <mxCell id="mKhACXzLoR_VBtiS50Ih-122" value="" style="endArrow=open;endFill=1;endSize=12;html=1;rounded=0;exitX=1;exitY=0.5;exitDx=0;exitDy=0;entryX=1;entryY=0.5;entryDx=0;entryDy=0;" parent="1" source="mKhACXzLoR_VBtiS50Ih-100" target="mKhACXzLoR_VBtiS50Ih-88" edge="1">
          <mxGeometry width="160" relative="1" as="geometry">
            <mxPoint x="790" y="690" as="sourcePoint" />
            <mxPoint x="710" y="1010" as="targetPoint" />
            <Array as="points">
              <mxPoint x="830" y="675" />
              <mxPoint x="830" y="940" />
              <mxPoint x="830" y="1180" />
            </Array>
          </mxGeometry>
        </mxCell>
        <mxCell id="mKhACXzLoR_VBtiS50Ih-123" value="" style="endArrow=open;endFill=1;endSize=12;html=1;rounded=0;exitX=1;exitY=0.5;exitDx=0;exitDy=0;entryX=1;entryY=0.5;entryDx=0;entryDy=0;" parent="1" source="mKhACXzLoR_VBtiS50Ih-90" target="mKhACXzLoR_VBtiS50Ih-89" edge="1">
          <mxGeometry width="160" relative="1" as="geometry">
            <mxPoint x="530" y="1100" as="sourcePoint" />
            <mxPoint x="690" y="1100" as="targetPoint" />
            <Array as="points">
              <mxPoint x="790" y="1040" />
              <mxPoint x="790" y="1110" />
            </Array>
          </mxGeometry>
        </mxCell>
        <mxCell id="mKhACXzLoR_VBtiS50Ih-124" value="" style="endArrow=open;endFill=1;endSize=12;html=1;rounded=0;entryX=1;entryY=0.5;entryDx=0;entryDy=0;exitX=0;exitY=0.5;exitDx=0;exitDy=0;" parent="1" source="mKhACXzLoR_VBtiS50Ih-52" target="mKhACXzLoR_VBtiS50Ih-87" edge="1">
          <mxGeometry width="160" relative="1" as="geometry">
            <mxPoint x="530" y="1200" as="sourcePoint" />
            <mxPoint x="690" y="1200" as="targetPoint" />
            <Array as="points">
              <mxPoint x="80" y="835" />
              <mxPoint x="80" y="1380" />
              <mxPoint x="830" y="1380" />
              <mxPoint x="830" y="1250" />
            </Array>
          </mxGeometry>
        </mxCell>
        <mxCell id="mKhACXzLoR_VBtiS50Ih-57" value="404.js" style="html=1;fillColor=#FFD966;" parent="1" vertex="1">
          <mxGeometry x="124" y="690" width="110" height="50" as="geometry" />
        </mxCell>
        <mxCell id="mKhACXzLoR_VBtiS50Ih-127" value="" style="endArrow=open;endFill=1;endSize=12;html=1;rounded=0;exitX=1;exitY=0.5;exitDx=0;exitDy=0;entryX=1;entryY=0.5;entryDx=0;entryDy=0;" parent="1" source="mKhACXzLoR_VBtiS50Ih-48" target="mKhACXzLoR_VBtiS50Ih-52" edge="1">
          <mxGeometry width="160" relative="1" as="geometry">
            <mxPoint x="530" y="770" as="sourcePoint" />
            <mxPoint x="690" y="770" as="targetPoint" />
            <Array as="points">
              <mxPoint x="280" y="535" />
              <mxPoint x="280" y="835" />
            </Array>
          </mxGeometry>
        </mxCell>
        <mxCell id="mKhACXzLoR_VBtiS50Ih-128" value="" style="endArrow=open;endFill=1;endSize=12;html=1;rounded=0;exitX=1;exitY=0.5;exitDx=0;exitDy=0;entryX=0;entryY=0.5;entryDx=0;entryDy=0;" parent="1" source="mKhACXzLoR_VBtiS50Ih-51" target="mKhACXzLoR_VBtiS50Ih-78" edge="1">
          <mxGeometry width="160" relative="1" as="geometry">
            <mxPoint x="530" y="870" as="sourcePoint" />
            <mxPoint x="690" y="870" as="targetPoint" />
            <Array as="points">
              <mxPoint x="480" y="835" />
              <mxPoint x="480" y="890" />
              <mxPoint x="90" y="890" />
              <mxPoint x="90" y="1255" />
            </Array>
          </mxGeometry>
        </mxCell>
        <mxCell id="mKhACXzLoR_VBtiS50Ih-129" value="" style="endArrow=open;endFill=1;endSize=12;html=1;rounded=0;exitX=1;exitY=0.5;exitDx=0;exitDy=0;entryX=0;entryY=0.5;entryDx=0;entryDy=0;" parent="1" source="mKhACXzLoR_VBtiS50Ih-50" target="mKhACXzLoR_VBtiS50Ih-75" edge="1">
          <mxGeometry width="160" relative="1" as="geometry">
            <mxPoint x="530" y="990" as="sourcePoint" />
            <mxPoint x="690" y="990" as="targetPoint" />
            <Array as="points">
              <mxPoint x="500" y="715" />
              <mxPoint x="500" y="920" />
              <mxPoint x="120" y="920" />
              <mxPoint x="120" y="1135" />
            </Array>
          </mxGeometry>
        </mxCell>
        <mxCell id="mKhACXzLoR_VBtiS50Ih-130" value="" style="endArrow=open;endFill=1;endSize=12;html=1;rounded=0;exitX=1;exitY=0.5;exitDx=0;exitDy=0;entryX=0;entryY=0.5;entryDx=0;entryDy=0;" parent="1" source="mKhACXzLoR_VBtiS50Ih-53" target="mKhACXzLoR_VBtiS50Ih-76" edge="1">
          <mxGeometry width="160" relative="1" as="geometry">
            <mxPoint x="530" y="790" as="sourcePoint" />
            <mxPoint x="690" y="790" as="targetPoint" />
            <Array as="points">
              <mxPoint x="490" y="775" />
              <mxPoint x="490" y="900" />
              <mxPoint x="100" y="900" />
              <mxPoint x="100" y="1195" />
            </Array>
          </mxGeometry>
        </mxCell>
        <mxCell id="mKhACXzLoR_VBtiS50Ih-131" value="" style="endArrow=open;endFill=1;endSize=12;html=1;rounded=0;exitX=1;exitY=0.5;exitDx=0;exitDy=0;entryX=0;entryY=0.5;entryDx=0;entryDy=0;" parent="1" source="mKhACXzLoR_VBtiS50Ih-56" target="mKhACXzLoR_VBtiS50Ih-74" edge="1">
          <mxGeometry width="160" relative="1" as="geometry">
            <mxPoint x="530" y="990" as="sourcePoint" />
            <mxPoint x="690" y="990" as="targetPoint" />
            <Array as="points">
              <mxPoint x="510" y="535" />
              <mxPoint x="510" y="940" />
              <mxPoint x="140" y="940" />
              <mxPoint x="140" y="1075" />
            </Array>
          </mxGeometry>
        </mxCell>
        <mxCell id="mKhACXzLoR_VBtiS50Ih-132" value="Use" style="endArrow=open;endSize=12;dashed=1;html=1;rounded=0;entryX=0.5;entryY=1;entryDx=0;entryDy=0;exitX=0;exitY=0.75;exitDx=0;exitDy=0;" parent="1" source="mKhACXzLoR_VBtiS50Ih-76" target="mKhACXzLoR_VBtiS50Ih-72" edge="1">
          <mxGeometry x="0.7048" y="-20" width="160" relative="1" as="geometry">
            <mxPoint x="220" y="1277.5" as="sourcePoint" />
            <mxPoint x="490" y="1250" as="targetPoint" />
            <Array as="points">
              <mxPoint x="170" y="1208" />
              <mxPoint x="170" y="1320" />
              <mxPoint x="480" y="1320" />
            </Array>
            <mxPoint x="-20" y="20" as="offset" />
          </mxGeometry>
        </mxCell>
        <mxCell id="mKhACXzLoR_VBtiS50Ih-133" value="Use" style="endArrow=open;endSize=12;dashed=1;html=1;rounded=0;entryX=0.5;entryY=1;entryDx=0;entryDy=0;exitX=0;exitY=0.75;exitDx=0;exitDy=0;" parent="1" source="mKhACXzLoR_VBtiS50Ih-75" target="mKhACXzLoR_VBtiS50Ih-72" edge="1">
          <mxGeometry x="0.7342" y="-20" width="160" relative="1" as="geometry">
            <mxPoint x="220" y="1217.5" as="sourcePoint" />
            <mxPoint x="490" y="1250" as="targetPoint" />
            <Array as="points">
              <mxPoint x="170" y="1148" />
              <mxPoint x="170" y="1320" />
              <mxPoint x="480" y="1320" />
            </Array>
            <mxPoint x="-20" y="20" as="offset" />
          </mxGeometry>
        </mxCell>
        <mxCell id="mKhACXzLoR_VBtiS50Ih-134" value="Use" style="endArrow=open;endSize=12;dashed=1;html=1;rounded=0;entryX=0.5;entryY=1;entryDx=0;entryDy=0;exitX=0;exitY=0.75;exitDx=0;exitDy=0;" parent="1" source="mKhACXzLoR_VBtiS50Ih-74" target="mKhACXzLoR_VBtiS50Ih-72" edge="1">
          <mxGeometry x="0.7583" y="-20" width="160" relative="1" as="geometry">
            <mxPoint x="220" y="1217.5" as="sourcePoint" />
            <mxPoint x="490" y="1250" as="targetPoint" />
            <Array as="points">
              <mxPoint x="170" y="1088" />
              <mxPoint x="170" y="1320" />
              <mxPoint x="480" y="1320" />
            </Array>
            <mxPoint x="-20" y="20" as="offset" />
          </mxGeometry>
        </mxCell>
        <mxCell id="mKhACXzLoR_VBtiS50Ih-135" value="Use" style="endArrow=open;endSize=12;dashed=1;html=1;rounded=0;exitX=0.5;exitY=1;exitDx=0;exitDy=0;entryX=0.25;entryY=0;entryDx=0;entryDy=0;" parent="1" source="mKhACXzLoR_VBtiS50Ih-31" target="mKhACXzLoR_VBtiS50Ih-100" edge="1">
          <mxGeometry x="-0.8499" y="-10" width="160" relative="1" as="geometry">
            <mxPoint x="530" y="380" as="sourcePoint" />
            <mxPoint x="690" y="380" as="targetPoint" />
            <Array as="points">
              <mxPoint x="535" y="330" />
              <mxPoint x="660" y="330" />
              <mxPoint x="660" y="630" />
              <mxPoint x="708" y="630" />
            </Array>
            <mxPoint as="offset" />
          </mxGeometry>
        </mxCell>
      </root>
    </mxGraphModel>
  </diagram>
</mxfile>
